HIERARCHY
ROOT Hips
{
  OFFSET 0.112003 -0.384080 -0.034731
  CHANNELS 3 Xposition Yposition Zposition
  JOINT Spine
  {
    OFFSET 0.229163 -21.884771 -2.579355
    CHANNELS 3 Xrotation Yrotation Zrotation
    JOINT Neck
    {
      OFFSET 0.229163 -21.884773 -2.579355
      CHANNELS 3 Xrotation Yrotation Zrotation
      JOINT Head
      {
        OFFSET -1.999791 -14.302311 -26.659847
        CHANNELS 3 Xrotation Yrotation Zrotation
        JOINT HeadTop
        {
          OFFSET 0.000000 15.000000 0.000000
          CHANNELS 3 Xrotation Yrotation Zrotation
        }
      }
      JOINT LeftShoulder
      {
        OFFSET 17.607569 3.280582 -1.087431
        CHANNELS 3 Xrotation Yrotation Zrotation
        JOINT LeftElbow
        {
          OFFSET 7.688892 20.184778 -5.054370
          CHANNELS 3 Xrotation Yrotation Zrotation
          JOINT LeftWrist
          {
            OFFSET 0.410223 21.106676 -1.003931
            CHANNELS 3 Xrotation Yrotation Zrotation
          }
        }
      }
      JOINT RightShoulder
      {
        OFFSET -17.607569 -3.280579 1.087430
        CHANNELS 3 Xrotation Yrotation Zrotation
        JOINT RightElbow
        {
          OFFSET -3.826374 29.005507 -8.061146
          CHANNELS 3 Xrotation Yrotation Zrotation
          JOINT RightWrist
          {
            OFFSET -1.973433 19.636284 -13.001321
            CHANNELS 3 Xrotation Yrotation Zrotation
          }
        }
      }
    }
  }
  JOINT LeftHip
  {
    OFFSET 10.151835 0.755726 3.626931
    CHANNELS 3 Xrotation Yrotation Zrotation
    JOINT LeftKnee
    {
      OFFSET -2.692991 38.493591 -9.213785
      CHANNELS 3 Xrotation Yrotation Zrotation
      JOINT LeftAnkle
      {
        OFFSET 2.345379 30.621975 10.852774
        CHANNELS 3 Xrotation Yrotation Zrotation
      }
    }
  }
  JOINT RightHip
  {
    OFFSET -10.151835 -0.755726 -3.626931
    CHANNELS 3 Xrotation Yrotation Zrotation
    JOINT RightKnee
    {
      OFFSET 8.400380 33.543720 -11.991464
      CHANNELS 3 Xrotation Yrotation Zrotation
      JOINT RightAnkle
      {
        OFFSET -7.804983 34.162872 15.695636
        CHANNELS 3 Xrotation Yrotation Zrotation
      }
    }
  }
}
MOTION
Frames: 14
Frame Time: 0.033333
0.195625 -0.534902 -0.067792 -6.087701 -0.102879 0.614097 -6.087701 -0.102879 0.614097 0.341833 6.453967 -3.480501 -0.972826 5.619400 0.640715 -66.171364 -4.701587 -35.363106 1.125202 28.255287 160.793961 -0.972826 5.619400 0.640711 -52.310867 8.015512 18.727465 -127.928589 -17.075727 10.865103 1.225011 0.169744 -3.468105 -1.449703 0.132708 0.927745 -17.291498 0.654567 3.191881 1.225028 0.169745 -3.468155 -5.226085 4.595674 7.765535 -5.606712 2.098892 -8.253575 0.000000 0.000000 0.000000
0.195902 -0.527781 -0.070468 -6.790515 -0.107161 0.627464 -6.790544 -0.107162 0.627467 0.980780 6.235093 -3.365749 -1.303193 8.005534 1.382892 -59.570717 -5.616844 -35.844021 8.315157 -18.134001 159.831284 -1.303193 8.005555 1.382907 -42.490200 9.155003 21.184319 -130.739822 -14.005478 10.952239 1.100557 0.790063 -3.293688 -1.003329 0.231868 1.216119 -17.175171 0.549033 3.677932 1.100574 0.790075 -3.293738 -0.323132 3.349107 8.865581 -4.946019 2.465216 -8.638720 0.000000 0.000000 0.000000
0.196295 -0.522591 -0.071112 -6.990337 -0.108640 0.636448 -6.990337 -0.108640 0.636448 1.440765 6.224116 -3.362170 -1.359919 8.639545 1.766214 -57.512039 -5.728668 -35.830261 6.193287 -5.369452 161.595047 -1.359916 8.639563 1.766244 -39.739132 9.289137 21.748631 -129.664169 -12.592006 10.565155 1.036304 1.010447 -3.173676 -0.848165 0.266200 1.318149 -17.535988 0.582318 3.700351 1.036304 1.010445 -3.173677 1.757633 2.787683 9.294143 -4.516810 2.652139 -8.760817 0.000000 0.000000 0.000000
0.199855 -0.521479 -0.082732 -9.797362 -0.118997 0.539978 -9.797362 -0.118997 0.539978 0.685684 5.169064 -2.795370 -1.140156 8.065028 2.683698 -40.663944 -9.658739 -40.601357 16.323494 -41.609112 149.582474 -1.140148 8.065017 2.683735 -23.268276 13.944700 33.882298 -140.478790 -25.447420 15.437610 0.973930 0.825083 -2.944513 -0.960081 0.264582 1.337791 -18.407545 0.680702 3.658077 0.973948 0.825102 -2.944567 1.289641 2.788079 8.845819 -4.293941 2.746592 -8.816671 0.000000 0.000000 0.000000
0.204082 -0.522032 -0.095410 -10.496984 -0.119990 0.425686 -10.496984 -0.119990 0.425686 0.233594 4.862695 -2.622908 -0.903269 6.820375 2.976434 -38.375069 -9.978854 -41.170074 9.735874 -21.981939 155.841705 -0.903266 6.820391 2.976467 -22.221012 14.674074 35.784241 -139.766525 -25.580908 15.268022 0.975303 0.277304 -2.798815 -0.731044 0.279355 1.344060 -18.172209 0.653439 3.673779 0.975325 0.277311 -2.798876 0.667942 2.943904 8.690414 -3.752581 2.890445 -8.752260 0.000000 0.000000 0.000000
0.211160 -0.521882 -0.081150 -10.358142 -0.107824 0.007945 -10.358142 -0.107824 0.007945 3.001861 4.969432 -2.732536 -0.971773 5.701824 0.781658 -32.305920 -8.618855 -38.829979 1.879714 22.399076 159.993225 -0.971776 5.701856 0.781673 -17.956839 12.075586 32.244198 -112.808884 -5.137361 7.961226 1.138569 -1.285906 -2.836245 -0.919147 0.199238 1.064281 -16.513483 0.659768 2.776054 1.138590 -1.285926 -2.836298 0.046253 2.654079 7.338062 -2.438918 3.358174 -8.860154 0.000000 0.000000 0.000000
0.213476 -0.519246 -0.073444 -10.736905 -0.105387 -0.259890 -10.736905 -0.105387 -0.259890 4.448847 4.832436 -2.691997 -0.848011 4.522687 -0.068261 -31.837458 -8.505389 -38.608650 1.022771 27.748732 160.072922 -0.848014 4.522730 -0.068222 -19.544281 12.071567 31.591040 -110.687401 -2.301792 7.834421 1.205232 -1.797079 -2.884429 -1.284845 0.131532 0.882529 -16.654875 0.709422 2.593674 1.205251 -1.797106 -2.884473 0.115782 2.536581 7.081450 -1.584749 3.708951 -9.022991 0.000000 0.000000 0.000000
0.218889 -0.523552 -0.063266 -8.868954 -0.075682 -0.413917 -8.868954 -0.075682 -0.413917 4.227556 4.320269 -2.434840 -0.240144 0.897065 -1.044848 -29.661034 -10.328375 -42.145420 -148.721893 43.210155 8.177796 -0.240170 0.897168 -1.044941 -22.990440 11.647560 29.474766 -103.152817 8.346894 8.286819 1.511807 -4.448804 -3.025110 4.687249 0.526079 1.025337 -4.828831 -0.429285 2.577746 1.511808 -4.448803 -3.025112 -1.819429 2.669980 5.795713 -1.146372 3.474114 -8.209843 0.000000 0.000000 0.000000
0.231124 -0.527593 -0.066077 -5.074658 -0.035758 -0.234262 -5.074658 -0.035758 -0.234262 4.901712 4.564472 -2.570672 -0.360857 1.551938 -0.948597 -27.706488 -11.412160 -44.484512 -153.012512 1.149189 -1.983129 -0.360879 1.552032 -0.948641 -19.984730 14.491196 36.486683 -102.389755 22.673679 9.724450 1.562346 -4.734553 -3.084327 4.422435 0.371450 0.325850 -7.961736 -0.013882 2.194057 1.562367 -4.734605 -3.084366 -1.348764 1.941019 4.269097 0.638020 4.173170 -8.474564 0.000000 0.000000 0.000000
0.237789 -0.532880 -0.063715 -3.605723 -0.000518 -0.431203 -3.605723 -0.000518 -0.431203 4.839134 5.237412 -2.897078 -0.403373 1.697824 -1.131457 -28.053940 -11.515469 -44.659733 -151.713684 -0.982836 -2.399074 -0.403373 1.697819 -1.131466 -19.366879 15.102811 38.085781 -100.962135 28.379910 10.612722 1.701145 -5.472014 -3.255597 4.950956 0.277126 -0.339807 -6.232448 -0.068539 1.825370 1.701162 -5.472064 -3.255629 -1.185861 1.564323 3.397327 0.141183 4.093098 -8.643964 0.000000 0.000000 0.000000
0.242620 -0.539054 -0.062598 -3.213472 0.005222 -0.433105 -3.213412 0.005222 -0.433097 4.622477 5.481186 -3.013162 -0.245105 0.764472 -1.493039 -28.486271 -11.267512 -44.110424 -151.396591 -5.040651 -3.233717 -0.245105 0.764473 -1.493038 -20.674118 14.749019 36.678600 -98.524422 25.229008 10.688031 1.854641 -6.709109 -3.340388 4.961934 0.253657 -0.464899 -6.073905 -0.117622 1.942117 1.854649 -6.709131 -3.340402 -1.032735 1.502324 3.349475 0.019028 3.939898 -8.406583 0.000000 0.000000 0.000000
0.243212 -0.539644 -0.062586 -2.913738 -0.003862 -0.288269 -2.913670 -0.003861 -0.288262 4.743382 5.757214 -3.149645 -0.417756 1.559193 -1.677654 -26.809917 -12.035158 -45.891464 -153.090424 -19.112183 -5.857701 -0.417774 1.559262 -1.677702 -22.422338 17.137491 40.545563 -95.249596 32.140152 12.485710 1.843085 -6.610396 -3.335387 4.225512 0.208862 -0.420293 -7.710426 0.013433 2.012554 1.843100 -6.610441 -3.335411 3.450022 0.328691 3.645589 2.307075 4.597680 -8.232352 0.000000 0.000000 0.000000
0.243117 -0.540502 -0.066380 -2.835098 -0.015350 -0.153556 -2.835098 -0.015350 -0.153556 4.075923 5.966372 -3.246894 -0.564865 2.271281 -1.725035 -25.693247 -12.448243 -46.940102 -155.964310 -21.936138 -5.839004 -0.564865 2.271287 -1.725027 -22.384298 18.243576 42.730301 -98.230026 36.758530 12.429303 1.805989 -6.341839 -3.307843 3.932398 0.211525 -0.302356 -8.928163 0.093972 2.130350 1.805997 -6.341861 -3.307857 6.499491 -0.484632 3.786218 2.556162 4.656075 -8.186698 0.000000 0.000000 0.000000
0.247348 -0.540454 -0.071302 -3.108233 -0.021519 -0.120882 -3.108233 -0.021519 -0.120882 3.465021 6.006703 -3.262543 -0.599931 2.291063 -2.100044 -21.767754 -14.241416 -51.871311 -156.530716 -50.383156 -10.742350 -0.599931 2.291070 -2.100038 -20.361609 18.968933 45.457939 -95.213585 48.384781 15.530813 1.796097 -6.249796 -3.305310 1.900931 0.063471 -0.311038 -9.515714 0.148913 2.129000 1.796105 -6.249818 -3.305324 6.302033 -0.376739 3.962642 2.159597 4.343256 -7.820840 0.000000 0.000000 0.000000
